<svg width="104" height="104" viewBox="0 0 104 104" fill="none" xmlns="http://www.w3.org/2000/svg">
<path d="M0 8C0 3.58172 3.58172 0 8 0H96C100.418 0 104 3.58172 104 8V96C104 100.418 100.418 104 96 104H8C3.58172 104 0 100.418 0 96V8Z" fill="#002147"/>
<path d="M72.8896 35.8464C72.1826 34.6354 71.3747 33.4244 70.5677 32.3144C70.5677 32.2124 70.4667 32.2124 70.4667 32.1124C70.3657 32.0114 70.3656 31.9104 70.2646 31.9104C70.1636 31.8094 70.0637 31.7094 69.9617 31.6074L69.8607 31.5064C65.8237 26.9644 60.0697 24.0364 53.7117 23.7344C53.5097 23.7344 53.4087 23.7344 53.2067 23.7344H53.1057C52.9037 23.7344 52.8026 23.7344 52.6006 23.7344H52.5007C50.8857 23.7344 49.1697 23.9364 47.5547 24.2394L53.2067 45.9404L72.8896 35.8464Z" fill="#F9FCFF"/>
<path d="M23.6328 50.8867C23.8348 64.1097 35.0388 75.2117 48.4628 75.7167V70.5697V50.8867H28.7808H23.6328Z" fill="#F9FCFF"/>
<path d="M73.495 46.345H75.716V46.244C75.716 46.143 75.716 45.941 75.716 45.841V45.739C75.716 45.537 75.716 45.436 75.716 45.234C75.716 45.234 75.716 45.234 75.716 45.133C75.514 42.307 74.706 39.481 73.495 36.957L55.125 46.143L73.495 46.345Z" fill="#F9FCFF"/>
<path d="M52.6066 47.3523C52.5056 47.3523 52.5056 47.3523 52.5056 47.3523C52.5056 47.3523 52.5056 47.3523 52.4036 47.3523C52.4036 47.3523 52.4036 47.3523 52.3026 47.3523L46.4486 24.9453C42.7146 25.9543 39.1806 27.9723 36.3546 30.7983C31.9146 35.1393 29.4916 40.9923 29.3906 47.1503C29.3906 48.1603 29.3906 49.1683 29.5916 50.0773H49.3746C49.6786 50.0773 49.9806 50.3813 49.9806 50.6833V70.4663C50.7876 70.5673 51.6966 70.6673 52.5036 70.6673C52.6046 70.6673 52.6046 70.6673 52.7046 70.6673C58.8616 70.6673 64.6146 68.3463 68.9556 64.0063C73.2956 59.7673 75.7186 54.1143 75.9196 47.9573L52.6066 47.3523Z" fill="#F9FCFF"/>
</svg>
