<svg width="104" height="104" viewBox="0 0 104 104" fill="none" xmlns="http://www.w3.org/2000/svg">
<path d="M0 8C0 3.58172 3.58172 0 8 0H96C100.418 0 104 3.58172 104 8V96C104 100.418 100.418 104 96 104H8C3.58172 104 0 100.418 0 96V8Z" fill="#002147"/>
<path d="M64.7734 26.8008V30.8378H69.7194L64.7734 26.8008Z" fill="#F9FCFF"/>
<path d="M64.2611 31.9472C63.9581 31.9472 63.6561 31.6442 63.6561 31.3412V25.9922H34.0831V31.3412V72.7242C34.0831 73.4302 33.8811 74.0372 33.5781 74.5412H70.7221V31.9472H64.2611ZM58.3061 67.4762H38.2201C37.9171 67.4762 37.6141 67.1732 37.6141 66.8712C37.6141 66.5682 37.9171 66.2662 38.2201 66.2662H58.3061C58.6101 66.2662 58.9131 66.5692 58.9131 66.8712C58.9121 67.1732 58.6091 67.4762 58.3061 67.4762ZM58.3061 63.9432H38.2201C37.9171 63.9432 37.6141 63.6402 37.6141 63.3382C37.6141 63.0352 37.9171 62.7332 38.2201 62.7332H58.3061C58.6101 62.7332 58.9131 63.0362 58.9131 63.3382C58.9121 63.6402 58.6091 63.9432 58.3061 63.9432ZM58.3061 60.4102H38.2201C37.9171 60.4102 37.6141 60.1072 37.6141 59.8052C37.6141 59.5022 37.9171 59.2002 38.2201 59.2002H58.3061C58.6101 59.2002 58.9131 59.5032 58.9131 59.8052C58.9121 60.1072 58.6091 60.4102 58.3061 60.4102ZM58.3061 56.7772H38.2201C37.9171 56.7772 37.6141 56.4742 37.6141 56.1712C37.6141 55.8682 37.9171 55.5662 38.2201 55.5662H58.3061C58.6101 55.5662 58.9131 55.8692 58.9131 56.1712C58.9121 56.4742 58.6091 56.7772 58.3061 56.7772ZM58.3061 53.2442H38.2201C37.9171 53.2442 37.6141 52.9412 37.6141 52.6392C37.6141 52.3362 37.9171 52.0342 38.2201 52.0342H58.3061C58.6101 52.0342 58.9131 52.3372 58.9131 52.6392C58.9121 52.9412 58.6091 53.2442 58.3061 53.2442ZM58.3061 49.7112H38.2201C37.9171 49.7112 37.6141 49.4082 37.6141 49.1062C37.6141 48.8042 37.9171 48.5012 38.2201 48.5012H58.3061C58.6101 48.5012 58.9131 48.8042 58.9131 49.1062C58.9121 49.5092 58.6091 49.7112 58.3061 49.7112ZM58.3061 46.1782H38.2201C37.9171 46.1782 37.6141 45.8752 37.6141 45.5732C37.6141 45.2712 37.9171 44.9682 38.2201 44.9682H58.3061C58.6101 44.9682 58.9131 45.2712 58.9131 45.5732C58.9131 45.8752 58.6091 46.1782 58.3061 46.1782ZM58.3061 42.6452H38.2201C37.9171 42.6452 37.6141 42.3422 37.6141 42.0402C37.6141 41.7372 37.9171 41.4352 38.2201 41.4352H58.3061C58.6101 41.4352 58.9131 41.7382 58.9131 42.0402C58.9121 42.3432 58.6091 42.6452 58.3061 42.6452ZM64.2611 39.1132H38.2201C37.9171 39.1132 37.6141 38.8102 37.6141 38.5072C37.6141 38.2042 37.9171 37.9022 38.2201 37.9022H64.2611C64.5651 37.9022 64.8671 38.2052 64.8671 38.5072C64.7661 38.8102 64.5641 39.1132 64.2611 39.1132ZM64.2611 35.5802H38.2201C37.9171 35.5802 37.6141 35.2772 37.6141 34.9742C37.6141 34.6712 37.9171 34.3692 38.2201 34.3692H64.2611C64.5651 34.3692 64.8671 34.6722 64.8671 34.9742C64.8671 35.2772 64.5641 35.5802 64.2611 35.5802Z" fill="#F9FCFF"/>
<path d="M29.5458 72.8233C29.5458 73.7323 30.2518 74.5393 31.1598 74.5393C32.0688 74.5393 32.8768 73.6313 32.8768 72.7223V31.9453H29.3438L29.5458 72.8233Z" fill="#F9FCFF"/>
</svg>
