<svg width="104" height="104" viewBox="0 0 104 104" fill="none" xmlns="http://www.w3.org/2000/svg">
<path d="M0 8C0 3.58172 3.58172 0 8 0H96C100.418 0 104 3.58172 104 8V96C104 100.418 100.418 104 96 104H8C3.58172 104 0 100.418 0 96V8Z" fill="#002147"/>
<path d="M50.4688 62.8974L53.1937 64.7134L58.8457 57.7494L56.6257 55.0234L50.4688 62.8974Z" fill="#F9FCFF"/>
<path d="M41.6875 57.548L45.7245 64.714L48.7525 62.898L43.4025 55.125L41.6875 57.548Z" fill="#F9FCFF"/>
<path d="M63.2858 46.344L60.8627 40.793C60.5597 42.912 59.8537 45.133 58.8438 47.151L63.2858 46.344Z" fill="#F9FCFF"/>
<path d="M53.3911 35.6442H41.0771C40.5721 35.6442 40.0671 35.5442 39.6641 35.4432C39.6641 35.9482 39.6641 36.4522 39.6641 37.0572C39.6641 40.0852 40.7741 44.1222 42.3891 47.1512C43.8021 49.7752 46.2241 52.8032 49.8581 52.8032C52.5831 52.8032 54.6021 51.0872 55.8131 49.5742C56.0151 49.2712 56.3171 48.9692 56.5201 48.6662L50.0601 49.7752H49.9591C49.6561 49.7752 49.4551 49.5742 49.3541 49.2712C49.2531 48.9682 49.5561 48.6662 49.8591 48.5642L57.3281 47.3532C59.2461 44.0222 60.2551 39.7832 59.7511 36.4522L55.9161 34.5352C55.4101 35.2412 54.5011 35.6442 53.3911 35.6442Z" fill="#F9FCFF"/>
<path d="M39.2617 34.0314C39.3627 34.0314 39.3628 34.0314 39.4638 34.1324C39.9688 34.3344 40.4728 34.4354 41.0788 34.4354H53.3927C54.3007 34.4354 54.9068 34.1324 55.3108 33.4264C55.4118 33.2244 55.6138 33.1224 55.8158 33.1224C55.9167 33.1224 56.0178 33.1224 56.1188 33.2244L59.7527 35.1424V32.1144L55.1097 29.2884C55.0087 29.1884 54.9077 29.0864 54.8067 28.9854C54.8067 28.8844 54.7057 28.7834 54.7057 28.6824V28.5814L54.5037 28.4794C53.9987 27.5714 53.6957 27.0664 52.8887 27.0664H37.3438V31.1034C37.3438 32.4164 38.0507 33.5264 39.2617 34.0314Z" fill="#F9FCFF"/>
<path d="M53.7948 65.9261C53.6938 66.0261 53.6938 66.0261 53.7948 65.9261C53.6938 66.0271 53.6938 66.0271 53.5928 66.0271H53.4918H53.3907H53.2897C53.2897 66.0271 53.2898 66.0271 53.1888 66.0271C53.1888 66.0271 53.1888 66.0271 53.0878 66.0271H52.9867L49.5547 63.7061L45.8197 66.0271H45.7188H45.6178H45.5168H45.4157C45.2137 66.0271 45.1127 65.9261 45.0117 65.7241L40.6718 58.2542L26.8438 61.1821V77.2311H35.1198V68.5501C35.1198 68.2471 35.4228 67.9451 35.7258 67.9451C36.0288 67.9451 36.3307 68.2481 36.3307 68.5501V77.2311H62.3717V68.5501C62.3717 68.2471 62.6748 67.9451 62.9778 67.9451C63.2808 67.9451 63.5827 68.2481 63.5827 68.5501V77.2311H71.8587V62.3931L59.9488 58.3561L53.7948 65.9261ZM51.3717 74.3031H48.7477V71.6791H51.3717V74.3031ZM51.3717 70.6691H48.7477V68.0451H51.3717V70.6691Z" fill="#F9FCFF"/>
<path d="M33.5123 51.6919C33.8153 51.6919 34.1172 51.3889 34.1172 51.0869V39.2769C34.1172 38.9739 33.8143 38.6719 33.5123 38.6719C33.2093 38.6719 32.9062 38.9749 32.9062 39.2769V51.0869C32.9062 51.3899 33.1083 51.6919 33.5123 51.6919Z" fill="#F9FCFF"/>
<path d="M29.8706 49.3717C30.1736 49.3717 30.4766 49.0688 30.4766 48.7668V33.3237C30.4766 33.0207 30.1736 32.7188 29.8706 32.7188C29.5676 32.7188 29.2656 33.0217 29.2656 33.3237V48.6667C29.3666 49.0687 29.5676 49.3717 29.8706 49.3717Z" fill="#F9FCFF"/>
<path d="M72.4654 28.0742C72.1624 28.0742 71.8594 28.3772 71.8594 28.6792V40.4882C71.8594 40.7912 72.1624 41.0932 72.4654 41.0932C72.7684 41.0932 73.0704 40.7902 73.0704 40.4882V28.6792C73.0704 28.2752 72.7674 28.0742 72.4654 28.0742Z" fill="#F9FCFF"/>
<path d="M68.9341 38.6731C69.2371 38.6731 69.5391 38.3701 69.5391 38.0681V22.7261C69.5391 22.4231 69.2361 22.1211 68.9341 22.1211C68.6311 22.1211 68.3281 22.4241 68.3281 22.7261V38.0681C68.3281 38.4711 68.6311 38.6731 68.9341 38.6731Z" fill="#F9FCFF"/>
</svg>
