<svg width="104" height="104" viewBox="0 0 104 104" fill="none" xmlns="http://www.w3.org/2000/svg">
<path d="M0 8C0 3.58172 3.58172 0 8 0H96C100.418 0 104 3.58172 104 8V96C104 100.418 100.418 104 96 104H8C3.58172 104 0 100.418 0 96V8Z" fill="#002147"/>
<path d="M66.35 52.6406C63.423 52.6406 61 55.0626 61 57.9906C61 60.9176 63.423 63.3406 66.35 63.3406C69.278 63.3406 71.7 60.9186 71.7 57.9906C71.699 55.0626 69.277 52.6406 66.35 52.6406Z" fill="#F9FCFF"/>
<path d="M33.2406 52.6406C30.3136 52.6406 27.8906 55.0626 27.8906 57.9906C27.8906 60.9176 30.3126 63.3406 33.2406 63.3406C36.1676 63.3406 38.5896 60.9186 38.5896 57.9906C38.5896 55.0626 36.1666 52.6406 33.2406 52.6406Z" fill="#F9FCFF"/>
<path d="M43.3361 63.3394H56.3571V52.6404H43.3361V63.3394ZM52.2181 56.7794H54.5391V59.1004H52.2181V56.7794ZM48.6861 56.7794H51.0071V59.1004H48.6861V56.7794ZM45.0521 56.7794H47.3731V59.1004H45.0521V56.7794Z" fill="#F9FCFF"/>
<path d="M49.7943 33.7664C52.7213 33.7664 55.1443 31.3434 55.1443 28.4164C55.1443 25.4894 52.7213 23.0664 49.7943 23.0664C46.8673 23.0664 44.4453 25.4884 44.4453 28.4164C44.5463 31.3434 46.8683 33.7664 49.7943 33.7664Z" fill="#F9FCFF"/>
<path d="M42.1205 43.8585C42.1205 43.5555 42.4235 43.2535 42.7265 43.2535C43.0295 43.2535 43.3315 43.5565 43.3315 43.8585V47.8965H56.3525V43.7575C56.3525 43.4545 56.6555 43.1525 56.9575 43.1525C57.2605 43.1525 57.5625 43.4555 57.5625 43.7575V47.8965H61.0955V40.2255L55.0385 38.1055L50.1935 40.9315C49.9915 41.0325 49.7895 41.0325 49.5885 40.9315L45.3495 38.1055L38.6875 40.2255V47.8965H42.2205L42.1205 43.8585Z" fill="#F9FCFF"/>
<path d="M33.8481 70.6072C33.6461 70.7082 33.4441 70.7082 33.2431 70.6072L28.8021 67.7812L22.0391 69.9012V77.5723H26.0771V73.5342C26.0771 73.2312 26.3801 72.9292 26.6821 72.9292C26.9841 72.9292 27.2871 73.2322 27.2871 73.5342V77.5723H40.3081V73.4332C40.3081 73.1302 40.6111 72.8282 40.9141 72.8282C41.2171 72.8282 41.5191 73.1312 41.5191 73.4332V77.5723H45.0521V69.9012L38.7941 67.7812L33.8481 70.6072Z" fill="#F9FCFF"/>
<path d="M70.6852 67.7812L65.7393 70.6072C65.5373 70.7082 65.3362 70.7082 65.1342 70.6072L60.7943 67.7812L54.0312 69.9012V77.5723H58.0683V73.5342C58.0683 73.2312 58.3712 72.9292 58.6732 72.9292C58.9752 72.9292 59.2783 73.2322 59.2783 73.5342V77.5723H72.2993V73.4332C72.2993 73.1302 72.6023 72.8282 72.9043 72.8282C73.2083 72.8282 73.5113 73.1312 73.5113 73.4332V77.5723H77.0432V69.9012L70.6852 67.7812Z" fill="#F9FCFF"/>
<path d="M60.2915 31.4444H70.3855V43.9604L67.7605 42.2444C67.4575 42.0424 67.1555 42.1434 66.9525 42.4464C66.7515 42.7494 66.8515 43.0514 67.1545 43.2544L70.6875 45.5754C70.6875 45.5754 70.6875 45.5754 70.7885 45.5754H70.8895C70.8895 45.5754 70.8895 45.5754 70.9915 45.5754C70.9915 45.5754 70.9915 45.5754 71.0925 45.5754C71.0925 45.5754 71.0925 45.5754 71.1935 45.5754L74.7265 43.2544C75.0295 43.0524 75.0295 42.7494 74.9285 42.4464C74.7265 42.1434 74.4235 42.1434 74.1205 42.2444L71.4955 43.9604V30.8394C71.4955 30.5364 71.1925 30.2344 70.8905 30.2344H60.2925C59.9895 30.2344 59.6875 30.5374 59.6875 30.8394C59.6855 31.1414 59.9885 31.4444 60.2915 31.4444Z" fill="#F9FCFF"/>
<path d="M23.3562 43.1534L26.8891 45.4754C26.8891 45.4754 26.8892 45.4754 26.9902 45.4754C26.9902 45.4754 26.9901 45.4754 27.0911 45.4754H27.1922C27.1922 45.4754 27.1921 45.4754 27.2931 45.4754L30.8262 43.1534C31.1292 42.9514 31.1292 42.6484 31.0282 42.3454C30.8261 42.0424 30.5231 42.0424 30.2201 42.1434L27.7981 43.8594V31.4444H37.8912C38.1942 31.4444 38.4971 31.1414 38.4971 30.8394C38.4971 30.5364 38.1942 30.2344 37.8912 30.2344H27.1922C26.8892 30.2344 26.5862 30.5374 26.5862 30.8394V43.9604L23.9621 42.2444C23.6591 42.0424 23.3572 42.1434 23.1542 42.4464C23.0532 42.5484 23.0532 42.9524 23.3562 43.1534Z" fill="#F9FCFF"/>
</svg>
