<svg width="104" height="104" viewBox="0 0 104 104" fill="none" xmlns="http://www.w3.org/2000/svg">
<path d="M0 8C0 3.58172 3.58172 0 8 0H96C100.418 0 104 3.58172 104 8V96C104 100.418 100.418 104 96 104H8C3.58172 104 0 100.418 0 96V8Z" fill="#002147"/>
<path d="M75.9571 41.8799C74.6477 38.784 72.7728 36.0033 70.3848 33.6152C67.9967 31.2272 65.2161 29.3523 62.1201 28.0429C58.9152 26.6874 55.5102 26 52 26C48.4898 26 45.0848 26.6874 41.8799 28.0429C38.7839 29.3523 36.0033 31.2272 33.6152 33.6152C31.2272 36.0033 29.3524 38.7839 28.0429 41.8799C26.6874 45.0848 26 48.4898 26 52C26 55.5103 26.6874 58.9152 28.0429 62.1201C29.3524 65.2161 31.2272 67.9968 33.6152 70.3848C36.0033 72.7728 38.7839 74.6476 41.8799 75.9571C45.0848 77.3126 48.4898 78 52 78C55.5102 78 58.9152 77.3126 62.1201 75.9571C65.2161 74.6476 67.9967 72.7728 70.3848 70.3848C72.7728 67.9968 74.6477 65.2162 75.9571 62.1201C77.3127 58.9152 78 55.5103 78 52C78 48.4898 77.3127 45.0848 75.9571 41.8799ZM52 29.9169C52.6855 29.9169 53.2412 30.4727 53.2412 31.1582C53.2412 31.8437 52.6855 32.3994 52 32.3994C51.3145 32.3994 50.7588 31.8437 50.7588 31.1582C50.7588 30.4727 51.3145 29.9169 52 29.9169ZM31.1583 53.2413C30.4728 53.2413 29.9171 52.6855 29.9171 52C29.9171 51.3145 30.4728 50.7588 31.1583 50.7588C31.8438 50.7588 32.3996 51.3145 32.3996 52C32.3996 52.6855 31.8438 53.2413 31.1583 53.2413ZM34.2916 63.0116C33.9654 63.2 33.5482 63.0882 33.3598 62.762C33.1715 62.4357 33.2832 62.0186 33.6095 61.8302C33.9358 61.6419 34.3529 61.7536 34.5413 62.0799C34.7296 62.4061 34.6179 62.8232 34.2916 63.0116ZM34.5413 41.9202C34.3529 42.2464 33.9357 42.3582 33.6095 42.1699C33.2833 41.9815 33.1715 41.5643 33.3598 41.2381C33.5482 40.9119 33.9654 40.8001 34.2916 40.9884C34.6179 41.1768 34.7296 41.5939 34.5413 41.9202ZM42.1698 70.3906C41.9815 70.7168 41.5643 70.8286 41.2381 70.6402C40.9118 70.4519 40.8001 70.0347 40.9884 69.7085C41.1768 69.3822 41.594 69.2704 41.9202 69.4588C42.2464 69.6471 42.3583 70.0643 42.1698 70.3906ZM41.9202 34.5413C41.5939 34.7296 41.1768 34.6179 40.9884 34.2916C40.8001 33.9653 40.9118 33.5482 41.2381 33.3598C41.5643 33.1715 41.9815 33.2832 42.1698 33.6095C42.3583 33.9357 42.2465 34.3528 41.9202 34.5413ZM52 74.083C51.3145 74.083 50.7588 73.5273 50.7588 72.8418C50.7588 72.1563 51.3145 71.6006 52 71.6006C52.6855 71.6006 53.2412 72.1563 53.2412 72.8418C53.2413 73.5273 52.6855 74.083 52 74.083ZM59.8244 54.8369C59.7133 55.1434 59.424 55.3338 59.1159 55.3338C59.0306 55.3338 58.9439 55.3192 58.8591 55.2885L51.7432 52.7085C51.445 52.6004 51.2465 52.3172 51.2465 52V36.6123C51.2465 36.1961 51.5838 35.8587 52.0001 35.8587C52.4163 35.8587 52.7537 36.1961 52.7537 36.6123V51.4717L59.3728 53.8716C59.764 54.0135 59.9662 54.4457 59.8244 54.8369ZM62.7619 70.6402C62.4356 70.8286 62.0185 70.7168 61.8302 70.3906C61.6418 70.0643 61.7535 69.6471 62.0798 69.4588C62.406 69.2704 62.8232 69.3822 63.0116 69.7085C63.1999 70.0347 63.0881 70.4519 62.7619 70.6402ZM63.0116 34.2916C62.8232 34.6178 62.406 34.7296 62.0798 34.5413C61.7535 34.3529 61.6418 33.9357 61.8302 33.6095C62.0185 33.2832 62.4357 33.1715 62.7619 33.3598C63.0881 33.5482 63.1999 33.9653 63.0116 34.2916ZM70.6402 62.7619C70.4518 63.0881 70.0346 63.1999 69.7084 63.0116C69.3822 62.8232 69.2704 62.406 69.4588 62.0798C69.6471 61.7536 70.0643 61.6418 70.3905 61.8301C70.7167 62.0185 70.8285 62.4357 70.6402 62.7619ZM70.3905 42.1699C70.0643 42.3582 69.6471 42.2465 69.4588 41.9202C69.2704 41.594 69.3822 41.1768 69.7084 40.9884C70.0346 40.8001 70.4518 40.9119 70.6402 41.2381C70.8285 41.5643 70.7168 41.9815 70.3905 42.1699ZM72.8418 53.2413C72.1562 53.2413 71.6005 52.6855 71.6005 52C71.6005 51.3145 72.1562 50.7588 72.8418 50.7588C73.5273 50.7588 74.083 51.3145 74.083 52C74.083 52.6855 73.5273 53.2413 72.8418 53.2413Z" fill="white"/>
</svg>
