<svg width="104" height="104" viewBox="0 0 104 104" fill="none" xmlns="http://www.w3.org/2000/svg">
<path d="M0 8C0 3.58172 3.58172 0 8 0H96C100.418 0 104 3.58172 104 8V96C104 100.418 100.418 104 96 104H8C3.58172 104 0 100.418 0 96V8Z" fill="#002147"/>
<g clip-path="url(#clip0_1_302)">
<path d="M76 35.6016C76 33.745 75.2625 31.9646 73.9497 30.6518C72.637 29.3391 70.8565 28.6016 69 28.6016H35C33.1467 28.6121 31.3723 29.3529 30.0619 30.6634C28.7514 31.9739 28.0105 33.7483 28 35.6016V61.6016C28.0663 63.5238 28.744 65.3749 29.9345 66.8856C31.1251 68.3962 32.7665 69.4878 34.62 70.0016C58.88 75.6616 57.4 75.4016 58.48 75.4016C59.7567 75.4419 61.0056 75.0232 62 74.2216C62.666 73.657 63.1929 72.9465 63.5398 72.1452C63.8867 71.344 64.0441 70.4736 64 69.6016V50.2216C64.0003 48.3609 63.3928 46.551 62.2701 45.0673C61.1473 43.5835 59.5707 42.507 57.78 42.0016L36.12 36.0016C35.7354 35.8981 35.4077 35.6462 35.2089 35.3011C35.0101 34.956 34.9566 34.5461 35.06 34.1616C35.1634 33.777 35.4154 33.4493 35.7605 33.2505C36.1055 33.0517 36.5154 32.9981 36.9 33.1016C44.36 35.1016 43.94 35.1016 44.04 35.1016H69C69.3978 35.1016 69.7794 35.2596 70.0607 35.5409C70.342 35.8222 70.5 36.2037 70.5 36.6016C70.5 36.9994 70.342 37.3809 70.0607 37.6622C69.7794 37.9435 69.3978 38.1016 69 38.1016H58.52C58.4006 38.1055 58.2866 38.152 58.1986 38.2327C58.1105 38.3134 58.0543 38.423 58.04 38.5416C58.0208 38.6628 58.0469 38.7869 58.1133 38.8902C58.1796 38.9935 58.2817 39.0687 58.4 39.1016C60.7551 39.705 62.8567 41.043 64.4 42.9216C64.4486 42.98 64.5099 43.0266 64.5792 43.0578C64.6485 43.089 64.724 43.1039 64.8 43.1016H69C69.3978 43.1016 69.7794 43.2596 70.0607 43.5409C70.342 43.8222 70.5 44.2037 70.5 44.6016C70.5 44.9994 70.342 45.3809 70.0607 45.6622C69.7794 45.9435 69.3978 46.1016 69 46.1016H67C66.9203 46.1021 66.842 46.1226 66.7722 46.161C66.7023 46.1994 66.6432 46.2546 66.6 46.3216C66.5664 46.39 66.549 46.4653 66.549 46.5416C66.549 46.6178 66.5664 46.6931 66.6 46.7616C66.9671 47.8784 67.1561 49.046 67.16 50.2216V64.1016C67.16 64.2342 67.2127 64.3613 67.3064 64.4551C67.4002 64.5489 67.5274 64.6016 67.66 64.6016H69.16C70.9886 64.5598 72.7283 63.8038 74.0066 62.4956C75.285 61.1873 76.0005 59.4307 76 57.6016V35.6016ZM59 58.6016C59 59.3927 58.7654 60.166 58.3259 60.8238C57.8864 61.4816 57.2616 61.9943 56.5307 62.2971C55.7998 62.5998 54.9956 62.679 54.2196 62.5247C53.4437 62.3704 52.731 61.9894 52.1716 61.43C51.6122 60.8706 51.2312 60.1578 51.0769 59.3819C50.9225 58.606 51.0017 57.8017 51.3045 57.0708C51.6072 56.3399 52.1199 55.7152 52.7777 55.2757C53.4355 54.8362 54.2089 54.6016 55 54.6016C56.0609 54.6016 57.0783 55.023 57.8284 55.7731C58.5786 56.5233 59 57.5407 59 58.6016Z" fill="#F9FCFF"/>
</g>
<defs>
<clipPath id="clip0_1_302">
<rect width="48" height="48" fill="white" transform="translate(28 28)"/>
</clipPath>
</defs>
</svg>
