<svg width="67" height="66" viewBox="0 0 67 66" fill="none" xmlns="http://www.w3.org/2000/svg">
<path d="M0.5 8C0.5 3.58172 4.08172 0 8.5 0H58.5C62.9183 0 66.5 3.58172 66.5 8V58C66.5 62.4183 62.9183 66 58.5 66H8.5C4.08172 66 0.5 62.4183 0.5 58V8Z" fill="#002147"/>
<path d="M27.2474 22.5846L29.3307 18.418V16.3346H27.2474V12.168H39.7474C40.3377 12.168 40.8328 12.368 41.2328 12.768C41.6328 13.168 41.8321 13.6624 41.8307 14.2513V16.3346L39.7474 20.5013H33.4974V18.418L29.3307 22.5846H27.2474ZM25.1641 53.8346V39.5638C25.1641 39.1819 25.2252 38.7742 25.3474 38.3409C25.4696 37.9076 25.6168 37.5166 25.7891 37.168L33.4974 22.5846H39.7474C40.2335 23.0707 40.7023 23.7221 41.1536 24.5388C41.605 25.3555 41.8307 26.093 41.8307 26.7513V53.8346H25.1641Z" fill="#F9FCFF"/>
</svg>
