<svg width="67" height="66" viewBox="0 0 67 66" fill="none" xmlns="http://www.w3.org/2000/svg">
<path d="M0.5 8C0.5 3.58172 4.08172 0 8.5 0H58.5C62.9183 0 66.5 3.58172 66.5 8V58C66.5 62.4183 62.9183 66 58.5 66H8.5C4.08172 66 0.5 62.4183 0.5 58V8Z" fill="#002147"/>
<path d="M33.5026 39.2513C24.2943 39.2513 16.8359 42.9805 16.8359 47.5846V51.7513H50.1693V47.5846C50.1693 42.9805 42.7109 39.2513 33.5026 39.2513ZM25.1693 26.7513C25.1693 28.9614 26.0472 31.0811 27.61 32.6439C29.1728 34.2067 31.2925 35.0846 33.5026 35.0846C35.7127 35.0846 37.8324 34.2067 39.3952 32.6439C40.958 31.0811 41.8359 28.9614 41.8359 26.7513M32.4609 12.168C31.8359 12.168 31.4193 12.6055 31.4193 13.2096V19.4596H29.3359V14.2513C29.3359 14.2513 24.6484 16.043 24.6484 22.0638C24.6484 22.0638 23.0859 22.3555 23.0859 24.668H43.9193C43.8151 22.3555 42.3568 22.0638 42.3568 22.0638C42.3568 16.043 37.6693 14.2513 37.6693 14.2513V19.4596H35.5859V13.2096C35.5859 12.6055 35.1901 12.168 34.5443 12.168H32.4609Z" fill="#F9FCFF"/>
</svg>
