<svg width="66" height="66" viewBox="0 0 66 66" fill="none" xmlns="http://www.w3.org/2000/svg">
<path d="M0 8C0 3.58172 3.58172 0 8 0H58C62.4183 0 66 3.58172 66 8V58C66 62.4183 62.4183 66 58 66H8C3.58172 66 0 62.4183 0 58V8Z" fill="#002147"/>
<path fill-rule="evenodd" clip-rule="evenodd" d="M16.3307 16.332C15.8887 16.332 15.4648 16.5076 15.1522 16.8202C14.8397 17.1327 14.6641 17.5567 14.6641 17.9987V41.332C14.6641 43.5887 16.1591 45.4954 18.2124 46.1187C18.5181 47.127 19.1345 48.013 19.9736 48.6502C20.8127 49.2874 21.8317 49.6432 22.8851 49.6669C23.9385 49.6906 24.9724 49.3808 25.8393 48.7819C26.7062 48.1831 27.3618 47.3256 27.7124 46.332H38.2824C38.633 47.3256 39.2886 48.1831 40.1555 48.7819C41.0224 49.3808 42.0563 49.6906 43.1097 49.6669C44.1631 49.6432 45.182 49.2874 46.0212 48.6502C46.8603 48.013 47.4767 47.127 47.7824 46.1187C48.8092 45.8072 49.7085 45.1736 50.3475 44.3116C50.9864 43.4497 51.3312 42.405 51.3307 41.332V34.6654C51.3307 33.571 51.1152 32.4874 50.6964 31.4763C50.2776 30.4653 49.6638 29.5466 48.89 28.7728C48.1161 27.999 47.1975 27.3852 46.1864 26.9664C45.1754 26.5476 44.0917 26.332 42.9974 26.332H36.3307V17.9987C36.3307 17.5567 36.1551 17.1327 35.8426 16.8202C35.53 16.5076 35.1061 16.332 34.6641 16.332H16.3307ZM38.2824 42.9987H36.3307V29.6654H42.9974C44.3235 29.6654 45.5952 30.1921 46.5329 31.1298C47.4706 32.0675 47.9974 33.3393 47.9974 34.6654V41.332C47.9973 41.774 47.8216 42.1979 47.5091 42.5104C47.083 41.6178 46.4017 40.8716 45.5515 40.3662C44.7013 39.8609 43.7202 39.619 42.7325 39.6713C41.7448 39.7236 40.7948 40.0676 40.0027 40.6599C39.2106 41.2522 38.6119 42.0661 38.2824 42.9987ZM21.8191 43.487C21.9728 43.3278 22.1567 43.2009 22.3601 43.1135C22.5634 43.0262 22.7821 42.9802 23.0034 42.9783C23.2247 42.9764 23.4442 43.0185 23.649 43.1023C23.8538 43.1861 24.0399 43.3099 24.1964 43.4664C24.3529 43.6229 24.4766 43.809 24.5604 44.0138C24.6442 44.2186 24.6864 44.4381 24.6845 44.6594C24.6826 44.8807 24.6366 45.0994 24.5492 45.3027C24.4619 45.506 24.3349 45.69 24.1757 45.8437C23.8614 46.1473 23.4404 46.3153 23.0034 46.3115C22.5664 46.3077 22.1484 46.1324 21.8394 45.8234C21.5304 45.5144 21.3551 45.0964 21.3513 44.6594C21.3475 44.2224 21.5155 43.8014 21.8191 43.487ZM41.3307 44.6654C41.3307 44.2233 41.5063 43.7994 41.8189 43.4869C42.1314 43.1743 42.5554 42.9987 42.9974 42.9987C43.4394 42.9987 43.8633 43.1743 44.1759 43.4869C44.4885 43.7994 44.6641 44.2233 44.6641 44.6654C44.6641 45.1074 44.4885 45.5313 44.1759 45.8439C43.8633 46.1564 43.4394 46.332 42.9974 46.332C42.5554 46.332 42.1314 46.1564 41.8189 45.8439C41.5063 45.5313 41.3307 45.1074 41.3307 44.6654Z" fill="#F9FCFF"/>
</svg>
