<svg width="66" height="66" viewBox="0 0 66 66" fill="none" xmlns="http://www.w3.org/2000/svg">
<path d="M0 8C0 3.58172 3.58172 0 8 0H58C62.4183 0 66 3.58172 66 8V58C66 62.4183 62.4183 66 58 66H8C3.58172 66 0 62.4183 0 58V8Z" fill="#002147"/>
<path d="M29.6693 22.9987H36.3359V19.6654H29.6693V22.9987ZM43.0026 51.332C40.697 51.332 38.732 50.5193 37.1076 48.8937C35.4832 47.2681 34.6704 45.3031 34.6693 42.9987C34.6682 40.6943 35.4809 38.7293 37.1076 37.1037C38.7343 35.4781 40.6993 34.6654 43.0026 34.6654C45.3059 34.6654 47.2715 35.4781 48.8993 37.1037C50.527 38.7293 51.3393 40.6943 51.3359 42.9987C51.3326 45.3031 50.5198 47.2687 48.8976 48.8954C47.2754 50.522 45.3104 51.3343 43.0026 51.332ZM19.6693 47.9987C18.7526 47.9987 17.9682 47.6726 17.3159 47.0204C16.6637 46.3681 16.337 45.5831 16.3359 44.6654V26.332C16.3359 25.4154 16.6626 24.6309 17.3159 23.9787C17.9693 23.3265 18.7537 22.9998 19.6693 22.9987H26.3359V19.6654C26.3359 18.7487 26.6626 17.9643 27.3159 17.312C27.9693 16.6598 28.7537 16.3331 29.6693 16.332H36.3359C37.2526 16.332 38.0376 16.6587 38.6909 17.312C39.3443 17.9654 39.6704 18.7498 39.6693 19.6654V22.9987H46.3359C47.2526 22.9987 48.0376 23.3254 48.6909 23.9787C49.3443 24.632 49.6704 25.4165 49.6693 26.332V31.1654C49.6693 31.6654 49.4543 32.0404 49.0243 32.2904C48.5943 32.5404 48.1426 32.5543 47.6693 32.332C46.947 31.9987 46.1904 31.7487 45.3993 31.582C44.6082 31.4154 43.8093 31.332 43.0026 31.332C39.7804 31.332 37.0304 32.4709 34.7526 34.7487C32.4748 37.0265 31.3359 39.7765 31.3359 42.9987C31.3359 43.4987 31.3709 44.0059 31.4409 44.5204C31.5109 45.0348 31.6148 45.5415 31.7526 46.0404C31.8915 46.5126 31.8154 46.957 31.5243 47.3737C31.2332 47.7904 30.8509 47.9987 30.3776 47.9987H19.6693ZM43.8359 42.6654V38.832C43.8359 38.6098 43.7526 38.4154 43.5859 38.2487C43.4193 38.082 43.2248 37.9987 43.0026 37.9987C42.7804 37.9987 42.5859 38.082 42.4193 38.2487C42.2526 38.4154 42.1693 38.6098 42.1693 38.832V42.6237C42.1693 42.8459 42.2109 43.0615 42.2943 43.2704C42.3776 43.4793 42.5026 43.6665 42.6693 43.832L45.1693 46.332C45.3359 46.4987 45.5304 46.582 45.7526 46.582C45.9748 46.582 46.1693 46.4987 46.3359 46.332C46.5026 46.1654 46.5859 45.9709 46.5859 45.7487C46.5859 45.5265 46.5026 45.332 46.3359 45.1654L43.8359 42.6654Z" fill="#F9FCFF"/>
</svg>
