<svg width="66" height="66" viewBox="0 0 66 66" fill="none" xmlns="http://www.w3.org/2000/svg">
<path d="M0 8C0 3.58172 3.58172 0 8 0H58C62.4183 0 66 3.58172 66 8V58C66 62.4183 62.4183 66 58 66H8C3.58172 66 0 62.4183 0 58V8Z" fill="#002147"/>
<path d="M47.6226 29.9237L45.3426 23.0837C45.0119 22.0878 44.3757 21.2215 43.5245 20.6079C42.6732 19.9942 41.6503 19.6644 40.6009 19.6654H36.3359V16.332H29.6693V19.6654H25.4043C24.3549 19.6644 23.332 19.9942 22.4807 20.6079C21.6295 21.2215 20.9934 22.0878 20.6626 23.0837L18.3826 29.9237C17.7763 30.1774 17.2585 30.6047 16.8944 31.1518C16.5302 31.6989 16.3359 32.3415 16.3359 32.9987V41.332C16.3359 42.562 17.0093 43.6254 18.0026 44.2037V47.9987C18.0026 48.4407 18.1782 48.8647 18.4908 49.1772C18.8033 49.4898 19.2272 49.6654 19.6693 49.6654H21.3359C21.778 49.6654 22.2019 49.4898 22.5144 49.1772C22.827 48.8647 23.0026 48.4407 23.0026 47.9987V44.6654H43.0026V47.9987C43.0026 48.4407 43.1782 48.8647 43.4908 49.1772C43.8033 49.4898 44.2272 49.6654 44.6693 49.6654H46.3359C46.778 49.6654 47.2019 49.4898 47.5145 49.1772C47.827 48.8647 48.0026 48.4407 48.0026 47.9987V44.2037C48.5083 43.9137 48.9286 43.4956 49.2211 42.9914C49.5137 42.4873 49.6683 41.9149 49.6693 41.332V32.9987C49.6693 32.3415 49.475 31.6989 49.1108 31.1518C48.7467 30.6047 48.2289 30.1774 47.6226 29.9237ZM25.4043 22.9987H40.5993C41.3176 22.9987 41.9543 23.4554 42.1809 24.1387L44.0243 29.6654H21.9809L23.8226 24.1387C23.9332 23.8067 24.1455 23.5179 24.4294 23.3133C24.7132 23.1087 25.0543 22.9986 25.4043 22.9987ZM22.1693 39.6654C21.8409 39.6653 21.5157 39.6005 21.2123 39.4747C20.9089 39.3489 20.6333 39.1646 20.4012 38.9323C20.169 38.7 19.9849 38.4242 19.8593 38.1208C19.7337 37.8173 19.6692 37.4921 19.6693 37.1637C19.6694 36.8353 19.7342 36.5101 19.86 36.2067C19.9857 35.9034 20.17 35.6277 20.4023 35.3956C20.6346 35.1634 20.9104 34.9793 21.2138 34.8537C21.5173 34.7282 21.8425 34.6636 22.1709 34.6637C22.8342 34.6639 23.4702 34.9276 23.939 35.3968C24.4079 35.8659 24.6712 36.5021 24.6709 37.1654C24.6707 37.8286 24.407 38.4646 23.9379 38.9335C23.4687 39.4023 22.8325 39.6656 22.1693 39.6654ZM43.8359 39.6654C43.5075 39.6653 43.1823 39.6005 42.879 39.4747C42.5756 39.3489 42.3 39.1646 42.0678 38.9323C41.8357 38.7 41.6516 38.4242 41.526 38.1208C41.4004 37.8173 41.3358 37.4921 41.3359 37.1637C41.336 36.8353 41.4008 36.5101 41.5266 36.2067C41.6524 35.9034 41.8367 35.6277 42.069 35.3956C42.3013 35.1634 42.5771 34.9793 42.8805 34.8537C43.184 34.7282 43.5092 34.6636 43.8376 34.6637C44.5009 34.6639 45.1369 34.9276 45.6057 35.3968C46.0746 35.8659 46.3378 36.5021 46.3376 37.1654C46.3374 37.8286 46.0737 38.4646 45.6045 38.9335C45.1354 39.4023 44.4992 39.6656 43.8359 39.6654Z" fill="#F9FCFF"/>
</svg>
